<svg id="finalSvg" version="1.1" inkscape:version="1.2 (dc2aedaf03, 2022-05-15)" width="216" height="110.4" viewBox="0 0 216 110.4" sodipodi:docname="signature.svg" xmlns:inkscape="http://www.inkscape.org/namespaces/inkscape" xmlns:sodipodi="http://sodipodi.sourceforge.net/DTD/sodipodi-0.dtd" xmlns="http://www.w3.org/2000/svg" xmlns:svg="http://www.w3.org/2000/svg" xmlns:rdf="http://www.w3.org/1999/02/22-rdf-syntax-ns#" xmlns:cc="http://creativecommons.org/ns#" xmlns:dc="http://purl.org/dc/elements/1.1/">
                    <metadata id="metadata8242">
                        <rdf:RDF>
                            <cc:Work rdf:about="">
                                <dc:format>image/svg+xml</dc:format>
                                <dc:type rdf:resource="http://purl.org/dc/dcmitype/StillImage" />
                                <dc:title />
                            </cc:Work>
                        </rdf:RDF>
                    </metadata>
                    <defs id="defs8240" />
                    <sodipodi:namedview pagecolor="#ffffff" bordercolor="#666666" borderopacity="1" objecttolerance="10" gridtolerance="10" guidetolerance="10" inkscape:pageopacity="0" inkscape:pageshadow="2" inkscape:window-width="1366" inkscape:window-height="705" id="namedview8238" showgrid="false" inkscape:zoom="1" inkscape:cx="104" inkscape:cy="57" inkscape:window-x="-8" inkscape:window-y="-8" inkscape:window-maximized="1" inkscape:current-layer="finalSvg" inkscape:showpageshadow="2" inkscape:pagecheckerboard="0" inkscape:deskcolor="#d1d1d1" />
                    <g id="g8804" transform="translate(16.329892,3.7113421)">
                        <!-- Layer 1: Outermost Shadow. ORIGINAL: #e8e8e8 (Lightest) -> REVERSED: #333333 (Darkest) -->
                        <path style="fill:#333333" d="M 8.012397,100.18206 C 6.9742158,99.860844 5.2867156,98.815146 4.2623972,97.85829 -1.4803705,92.493738 6.0795696,83.012334 24.393503,72.610572 29.314832,69.815406 29.927266,69.275826 30.273541,67.430022 30.553927,65.935434 30.357541,64.920666 29.558416,63.734808 27.426871,60.571704 26.833276,58.883619 27.202822,57.035893 27.655178,54.774112 27.430199,54.763141 24.686342,56.913184 20.511759,60.18432 18.6,60.764748 18.6,58.761046 18.6,56.905808 23.744477,52.294795 29.601904,48.9 32.448838,47.25 34.783064,45.581786 34.789073,45.192857 34.811843,43.71916 36.709119,42.52862 38.431873,42.907001 39.693535,43.184108 42.315137,42.356021 48.895855,39.601735 53.725166,37.580481 58.131725,36.013472 58.68821,36.119494 59.244694,36.225514 59.783058,36.892423 59.884573,37.601512 60.077694,38.950485 59.510026,39.284915 48.38176,44.378125 46.116728,45.414791 42.876728,47.288596 41.18176,48.542137 L 38.1,50.821304 36.687964,57.249145 C 35.317756,63.486576 35.308869,63.702456 36.387964,64.536774 37.697456,65.549226 36.675532,65.797104 49.650658,61.319748 58.312073,58.330937 59.852491,57.624512 59.089404,56.991206 58.343441,56.372112 57.965593,56.42615 57.013093,57.288151 56.372675,57.867722 54.555239,58.476646 52.974348,58.641315 51.056548,58.841077 49.776123,59.347812 49.126775,60.16401 47.819839,61.806768 46.196028,61.140672 46.213177,58.968831 46.233247,56.427429 48.22397,52.57603 50.901468,49.898532 55.093745,45.706255 57.025405,45.470664 57.129701,49.138918 57.171201,50.59857 56.621189,51.646858 54.84217,53.498803 L 52.5,55.936982 54.446884,54.954695 C 55.705878,54.319477 56.928433,52.917296 57.906991,50.986204 59.469473,47.902794 60.509622,47.345186 61.79955,48.899458 62.393172,49.614729 62.394222,50.165415 61.80495,51.588682 60.941958,53.671504 61.342548,55.2 62.75115,55.2 63.46863,55.2 63.647064,54.844781 63.40143,53.90546 62.913282,52.038779 64.377,48.982916 66.474738,47.489194 68.734566,45.880055 70.8,45.787519 70.8,47.295412 70.8,48.45826 73.143192,51 74.215206,51 74.566026,51 75.169872,50.618273 75.557076,50.151719 76.515978,48.996311 81.295458,46.8 82.850886,46.8 83.546064,46.8 84.88479,47.254816 85.825836,47.810703 87.260238,48.658027 87.800106,48.701444 89.165574,48.079295 90.491904,47.474978 90.947292,47.490149 91.618146,48.161005 92.31657,48.859429 92.24949,49.229515 91.177434,50.592412 89.681328,52.494404 86.626314,52.769089 84.25431,51.214891 82.499442,50.065058 81.542832,50.37903 76.39962,53.792899 73.345668,55.819998 73.111518,55.880038 71.746938,54.985932 70.52343,54.184259 70.206912,54.168715 69.615552,54.881265 69.04854,55.564472 69.286254,55.753137 70.910526,55.909043 72.391428,56.051187 72.9,56.388904 72.9,57.230156 72.9,58.159605 71.887728,58.608607 67.2,59.758445 64.065,60.52742 57.118403,62.680358 51.763117,64.542752 L 42.026234,67.928924 45.578869,71.426828 C 49.356314,75.146078 50.275811,77.388944 49.565029,81.150002 48.930211,84.509102 46.970375,86.897966 42.460532,89.809736 31.015732,97.19906 14.471475,102.18053 8.012397,100.18206 Z M 16.2,96.637122 C 22.455401,95.49876 27.154573,93.84237 34.705183,90.114318 42.871793,86.082114 46.8,82.882302 46.8,80.262204 46.8,78.43959 45.245408,75.961344 42.606631,73.57737 39.024757,70.34136 37.829095,69.921042 35.259635,70.994634 32.93651,71.965296 33.256727,71.205018 30.034676,83.4 27.801666,91.851606 27.133012,92.995722 25.14559,91.76559 24.438026,91.327638 24.631791,89.962728 26.332648,83.40375 27.450604,79.0926 28.242174,75.442176 28.091693,75.291696 27.589526,74.789526 17.147019,81.117084 13.614224,84.064206 6.1788264,90.266952 4.1718146,94.369866 7.65,96.256818 9.4880892,97.253994 12.157699,97.37274 16.2,96.637122 Z M 32.747424,56.7 C 33.154968,54.481085 33.110748,54.364184 32.161356,55.150654 30.419507,56.593589 29.82735,58.169014 30.652934,59.163782 31.61936,60.328254 32.208263,59.635518 32.747424,56.7 Z M 90.807426,58.47511 C 90.39954,57.412187 91.398318,54.751582 96.812952,42.477157 101.17292,32.593555 103.97369,28.031022 105.50218,28.322184 107.16513,28.638959 106.96349,30.857257 104.98202,34.044778 103.94897,35.706611 102.94938,38.243877 102.76071,39.683147 102.53509,41.404351 101.89545,42.789351 100.89187,43.729756 L 99.366054,45.159513 100.7495,46.279756 C 101.51039,46.89589 103.03759,47.4 104.14327,47.4 106.90963,47.4 118.64813,41.345025 122.08308,38.146252 124.57295,35.827576 124.7771,35.426504 124.42115,33.552876 124.20665,32.423794 123.73546,31.12561 123.37407,30.668023 122.25932,29.256538 118.13126,27.806572 112.17346,26.733846 107.3302,25.861797 105.43543,25.803817 99.58185,26.348547 91.844724,27.068558 86.045184,28.392125 84.499974,29.790523 83.930658,30.305749 83.382756,31.70891 83.282424,32.908658 83.157738,34.399648 82.774476,35.151689 82.071438,35.284876 80.480172,35.586333 80.05437,32.762317 81.280956,30.042236 83.458266,25.213827 90.441066,23.182013 105,23.140612 116.16014,23.108882 120.54905,23.989607 124.8858,27.131129 127.19806,28.806123 127.40984,28.848778 129.50459,28.061435 132.34889,26.992363 134.19712,27.332581 135.38378,29.143667 135.90861,29.944651 136.55163,30.6 136.81272,30.6 137.62759,30.6 141.57128,24.699677 143.1497,21.118992 145.75017,15.219739 151.50753,7.2 153.14212,7.2 154.85887,7.2 155.22462,9.070887 153.70511,10.079807 152.9873,10.556414 152.4,11.154315 152.4,11.408474 152.4,11.662633 151.185,14.031118 149.7,16.671775 146.69321,22.018499 146.25199,23.711895 148.38867,21.704588 149.98465,20.20524 151.9332,20.014587 152.96423,21.256899 153.94585,22.439686 152.37641,25.516001 149.51602,28.015846 147.55688,29.728031 147.4436,29.977647 148.4504,30.363992 149.07001,30.601756 150.27964,30.501266 151.13848,30.140678 163.78312,24.831762 165,24.531171 165,26.716643 165,28.032169 151.61797,34.44 148.87064,34.44 147.26669,34.44 146.44267,33.98996 145.09847,32.379829 143.6878,30.690067 143.19171,30.435884 142.33928,30.966098 140.88688,31.869506 138.58666,37.880824 137.90057,42.566106 137.58374,44.729748 137.19112,47.394263 137.02808,48.487252 136.78435,50.121184 136.4977,50.441212 135.41582,50.287252 134.25502,50.122061 134.07669,49.675864 133.90217,46.5 133.79336,44.52 134.01991,41.461552 134.40562,39.703448 134.79132,37.945344 134.9653,36.365304 134.79225,36.192248 134.61919,36.019192 133.86007,36.310141 133.1053,36.838801 132.35053,37.36746 130.70459,37.8 129.44767,37.8 127.96402,37.8 127.0405,38.117509 126.81501,38.705116 126.23108,40.22683 117.22862,46.644941 112.46287,48.937175 107.85622,51.152887 106.38687,51.301978 99.030636,50.300116 97.730934,50.123107 97.37358,50.550334 95.935848,54 95.041872,56.145 94.00494,58.2375 93.63156,58.65 92.697798,59.681596 91.235652,59.59105 90.807426,58.47511 Z M 68.800002,41.6 C 68.058324,40.858323 68.392734,39.131174 69.349074,38.764193 72.046632,37.729042 74.941824,39.122601 74.185956,41.092359 73.831356,42.016425 69.613932,42.413929 68.800002,41.6 Z M 169.22392,28.528823 C 168.09415,27.167538 168.71017,25.5 170.34283,25.5 172.23547,25.5 173.30761,27.165415 172.24174,28.449706 171.25891,29.633945 170.1649,29.662627 169.22392,28.528826 Z" id="path8818" inkscape:connector-curvature="0" sodipodi:nodetypes="sssssssssssssssscssssssssssscssscssssssssssssssssssscsssssssssssssssssssssssssscsssssssssssssssssssssssssssssssssssssssssssssssssssss" />
                        <!-- Layer 2: ORIGINAL: #d7d7d7 -> REVERSED: #666666 -->
                        <path style="fill:#666666" d="M 6.1735998,98.633466 C 4.7840793,97.714422 3.3343142,96.207108 2.9518994,95.283876 1.9475465,92.85915 4.4754182,87.965424 8.7505764,84.05817 12.581756,80.55669 21.486984,74.480082 26.483572,71.957814 29.522663,70.423686 30.032546,69.907362 30.603919,67.78545 31.164469,65.703726 31.095071,65.13483 30.109441,63.731934 29.478844,62.83437 28.603833,61.092546 28.164973,59.861218 27.46934,57.909446 27.49742,57.349039 28.384006,55.489849 L 29.400965,53.357263 28.050483,54.071911 C 27.307717,54.464967 25.62,55.656648 24.3,56.72009 22.98,57.783533 21.265846,58.848212 20.490768,59.086043 19.229737,59.472989 19.123319,59.370263 19.478854,58.109232 20.015808,56.204732 24.294632,52.529657 29.886187,49.170389 32.55371,47.567807 34.827338,45.729844 35.275976,44.813374 35.947093,43.442428 36.393028,43.242338 38.575976,43.332676 40.471256,43.411106 42.893547,42.643364 48.3,40.250651 52.26,38.498088 56.3775,36.930195 57.45,36.766443 59.127809,36.510272 59.4,36.645378 59.4,37.734356 59.4,38.43046 59.319932,39 59.222071,39 58.674838,39 44.865684,45.604378 42.538145,46.97927 38.727631,49.230162 38.045318,50.14164 36.928157,54.473447 34.979547,62.029206 34.855567,63.464304 36.057453,64.551996 36.764147,65.191542 37.746384,65.431644 38.826332,65.228832 41.356903,64.753584 60.6,58.049488 60.6,57.643108 60.6,57.448159 60.047736,56.94376 59.372742,56.522221 58.329868,55.870935 57.919986,55.933163 56.644566,56.936408 54.657583,58.499369 51.787067,59.102186 50.685368,58.187857 49.978786,57.601445 49.707227,57.76589 49.206252,59.083555 48.463085,61.038234 47.169713,60.793164 46.914546,58.649321 46.655044,56.469052 48.660497,52.83424 51.922929,49.571807 54.846061,46.648676 56.036821,46.188142 56.635807,47.749072 57.26149,49.379576 57.074237,49.772044 54.209246,52.834951 52.674332,54.475898 51.613399,56.013398 51.851617,56.251618 52.767385,57.167385 56.724299,54.128726 58.2,51.376461 59.119539,49.66147 60.048276,48.648257 60.6,48.758164 61.4754,48.93255 61.522458,49.339499 61.101228,53.093152 60.945078,54.484595 61.20243,55.020523 62.25,55.485429 62.9925,55.814948 63.6,56.290529 63.6,56.542277 63.6,56.794025 63.988986,57 64.46442,57 65.216082,57 65.216562,56.78477 64.46802,55.35 63.99462,54.4425 63.606642,53.295 63.605844,52.8 63.603444,51.133243 65.94345,48 67.191084,48 68.644572,48 68.658276,48.129608 67.46379,50.579796 L 66.527766,52.5 67.750542,51 C 68.42307,50.175 68.979318,49.2975 68.986656,49.05 69.014316,48.116236 70.493526,48.656705 72.086094,50.182486 L 73.737858,51.764972 76.618926,49.920872 C 81.161124,47.013529 82.556436,46.643231 84.73137,47.767934 85.930362,48.387958 87.416592,48.62165 88.897536,48.423013 91.75983,48.039098 92.3391,48.84881 90.55827,50.744417 88.961166,52.444457 87.64452,52.56411 85.087104,51.24162 82.641666,49.977034 80.362254,50.483494 76.718982,53.100926 73.484964,55.424336 72.512364,55.640315 71.387436,54.284863 70.7091,53.467513 70.510422,53.476081 69.52812,54.365051 68.116866,55.64222 68.603676,56.4 70.835412,56.4 71.940708,56.4 72.6,56.711174 72.6,57.232854 72.6,57.785779 70.7346,58.5205 67.05,59.418819 61.398858,60.79659 42.700422,67.006596 41.811171,67.800978 41.542315,68.041152 42.373271,69.070008 43.65774,70.087326 46.973915,72.713784 49.32,76.322388 49.32,78.796662 49.32,79.929114 48.785261,82.064532 48.131692,83.542032 47.154422,85.75131 46.051547,86.816304 41.921692,89.538714 32.755388,95.58117 22.523462,99.299898 13.2,99.977436 9.0053388,100.28227 8.5285758,100.19107 6.1735998,98.633466 Z M 20.1,96.249276 C 21.42,95.791776 23.088364,95.413536 23.807476,95.40873 24.526588,95.40393 29.159358,93.379314 34.10252,90.909582 41.047318,87.439788 43.579883,85.84695 45.245044,83.901582 46.43027,82.516914 47.4,81.01893 47.4,80.572728 47.4,77.789394 43.436365,72.894624 39.256433,70.51608 37.480477,69.505488 37.324635,69.512028 35.006982,70.694406 32.626829,71.908668 32.580562,71.997618 30.681191,79.010898 29.625242,82.909902 28.532278,87.13422 28.252382,88.398258 27.619517,91.256346 26.685849,92.325846 25.691597,91.331598 25.147061,90.787062 25.444571,88.813038 26.977756,82.797756 28.074764,78.493764 28.811426,74.811426 28.614781,74.614782 28.039089,74.039088 18.352057,79.733718 13.947956,83.236836 9.5488428,86.735988 5.416525,91.508124 5.406377,93.100926 5.384653,96.510672 8.2026462,97.969398 13.8,97.445862 15.945,97.245234 18.78,96.70677 20.1,96.249276 Z M 33.007769,57.567614 C 33.852376,54.046897 33.513505,53.352112 31.732861,54.953678 30.050983,56.466412 29.412854,58.253926 30.09201,59.55 31.103599,61.480476 32.257252,60.696126 33.007769,57.567614 Z M 91.2,57.635839 C 91.2,56.55471 93.82107,50.202199 99.343482,37.899041 101.30114,33.537666 104.43674,28.8 105.36564,28.8 106.73423,28.8 106.92597,30.019062 105.81806,31.676386 103.92262,34.511753 102,39.063372 102,40.71525 102,41.66154 101.51146,42.616446 100.8,43.060756 98.843742,44.282459 99.293892,46.133332 101.80217,47.181357 103.84127,48.033347 104.26698,48.011805 107.55111,46.890439 112.20081,45.302801 119.63878,41.05354 122.51285,38.342902 124.42165,36.542641 124.8,35.788799 124.8,33.785894 124.8,31.191206 124.0501,30.228889 120.70856,28.535515 115.47128,25.881448 102.36035,25.035932 92.628594,26.724655 85.38495,27.981623 83.187162,29.166847 82.8,32.025034 82.635,33.243123 82.23,34.239194 81.9,34.238524 80.898804,34.236524 80.875416,31.45033 81.86964,30.625175 82.38135,30.200516 82.8,29.531902 82.8,29.139368 82.8,27.892631 86.12844,25.906057 90.078384,24.795273 93.11838,23.94038 96.170232,23.719108 105,23.713389 117.32996,23.705389 120.0938,24.259821 124.83101,27.691438 127.34716,29.514127 127.35001,29.514607 129.60835,28.496234 132.24612,27.306766 134.0341,27.68378 135.36127,29.709299 135.90539,30.539743 136.65068,30.989395 137.15942,30.794174 138.35155,30.336713 141.54511,25.38775 144.91639,18.77344 146.46566,15.733832 148.64827,12.304714 149.76662,11.153179 150.88498,10.001644 151.8,8.7760962 151.8,8.4297396 151.8,8.083383 152.34,7.8 153,7.8 154.34527,7.8 154.59229,8.689401 153.45,9.420186 153.0375,9.6840834 151.9067,11.380169 150.9371,13.189264 145.24783,23.804486 144.50588,26.089706 147.77857,22.9177 149.84787,20.91205 152.20874,20.403432 152.7616,21.844171 153.16943,22.906974 150.58212,27.067118 148.76147,28.275987 147.85181,28.879976 147.51989,29.525818 147.77606,30.193376 148.31635,31.60135 149.49223,31.459279 153.77502,29.468576 158.94203,27.066877 163.66236,25.462359 164.14399,25.943993 164.36633,26.166332 164.40584,26.719363 164.23179,27.172949 163.85675,28.150265 150.54359,34.2 148.76791,34.2 148.09285,34.2 146.56082,33.248528 145.36341,32.085617 144.166,30.922706 142.89688,30.062819 142.54315,30.174757 140.54894,30.80582 136.82024,41.857673 136.79081,47.224705 136.77951,49.295924 135.95533,50.690429 135.06708,50.141459 134.19396,49.60184 134.20042,42.123989 135.07708,38.642708 135.44944,37.163937 135.6134,35.813332 135.44143,35.641363 135.26946,35.469395 134.0913,35.884738 132.82329,36.564347 131.55527,37.243956 129.75793,37.8 128.82918,37.8 127.69267,37.8 126.41463,38.515004 124.9203,39.986838 122.18834,42.677671 117.22862,46.644941 112.46287,48.937175 107.85622,51.152887 106.38687,51.301978 99.030636,50.300116 97.730934,50.123107 97.37358,50.550334 95.935848,54 95.041872,56.145 94.00494,58.2375 93.63156,58.65 92.697798,59.681596 91.235652,59.59105 90.807426,58.47511 Z M 68.800002,41.6 C 68.058324,40.858323 68.392734,39.131174 69.349074,38.764193 72.046632,37.729042 74.941824,39.122601 74.185956,41.092359 73.831356,42.016425 69.613932,42.413929 68.800002,41.6 Z M 169.22392,28.528823 C 168.09415,27.167538 168.71017,25.5 170.34283,25.5 172.23547,25.5 173.30761,27.165415 172.24174,28.449706 171.25891,29.633945 170.1649,29.662627 169.22392,28.528826 Z" id="path8818" inkscape:connector-curvature="0" sodipodi:nodetypes="sssssssssssssssscssssssssssscssscssssssssssssssssssscsssssssssssssssssssssssssscsssssssssssssssssssssssssssssssssssssssssssssssssssss" />
                        <!-- Layer 2: ORIGINAL: #d7d7d7 -> REVERSED: #666666 -->
                        <path style="fill:#666666" d="M 6.1735998,98.633466 C 4.7840793,97.714422 3.3343142,96.207108 2.9518994,95.283876 1.9475465,92.85915 4.4754182,87.965424 8.7505764,84.05817 12.581756,80.55669 21.486984,74.480082 26.483572,71.957814 29.522663,70.423686 30.032546,69.907362 30.603919,67.78545 31.164469,65.703726 31.095071,65.13483 30.109441,63.731934 29.478844,62.83437 28.603833,61.092546 28.164973,59.861218 27.46934,57.909446 27.49742,57.349039 28.384006,55.489849 L 29.400965,53.357263 28.050483,54.071911 C 27.307717,54.464967 25.62,55.656648 24.3,56.72009 22.98,57.783533 21.265846,58.848212 20.490768,59.086043 19.229737,59.472989 19.123319,59.370263 19.478854,58.109232 20.015808,56.204732 24.294632,52.529657 29.886187,49.170389 32.55371,47.567807 34.827338,45.729844 35.275976,44.813374 35.947093,43.442428 36.393028,43.242338 38.575976,43.332676 40.471256,43.411106 42.893547,42.643364 48.3,40.250651 52.26,38.498088 56.3775,36.930195 57.45,36.766443 59.127809,36.510272 59.4,36.645378 59.4,37.734356 59.4,38.43046 59.319932,39 59.222071,39 58.674838,39 44.865684,45.604378 42.538145,46.97927 38.727631,49.230162 38.045318,50.14164 36.928157,54.473447 34.979547,62.029206 34.855567,63.464304 36.057453,64.551996 36.764147,65.191542 37.746384,65.431644 38.826332,65.228832 41.356903,64.753584 60.6,58.049488 60.6,57.643108 60.6,57.448159 60.047736,56.94376 59.372742,56.522221 58.329868,55.870935 57.919986,55.933163 56.644566,56.936408 54.657583,58.499369 51.787067,59.102186 50.685368,58.187857 49.978786,57.601445 49.707227,57.76589 49.206252,59.083555 48.463085,61.038234 47.169713,60.793164 46.914546,58.649321 46.655044,56.469052 48.660497,52.83424 51.922929,49.571807 54.846061,46.648676 56.036821,46.188142 56.635807,47.749072 57.26149,49.379576 57.074237,49.772044 54.209246,52.834951 52.674332,54.475898 51.613399,56.013398 51.851617,56.251618 52.767385,57.167385 56.724299,54.128726 58.2,51.376461 59.119539,49.66147 60.048276,48.648257 60.6,48.758164 61.4754,48.93255 61.522458,49.339499 61.101228,53.093152 60.945078,54.484595 61.20243,55.020523 62.25,55.485429 62.9925,55.814948 63.6,56.290529 63.6,56.542277 63.6,56.794025 63.988986,57 64.46442,57 65.216082,57 65.216562,56.78477 64.46802,55.35 63.99462,54.4425 63.606642,53.295 63.605844,52.8 63.603444,51.133243 65.94345,48 67.191084,48 68.644572,48 68.658276,48.129608 67.46379,50.579796 L 66.527766,52.5 67.750542,51 C 68.42307,50.175 68.979318,49.2975 68.986656,49.05 69.014316,48.116236 70.493526,48.656705 72.086094,50.182486 L 73.737858,51.764972 76.618926,49.920872 C 81.161124,47.013529 82.556436,46.643231 84.73137,47.767934 85.930362,48.387958 87.416592,48.62165 88.897536,48.423013 91.75983,48.039098 92.3391,48.84881 90.55827,50.744417 88.961166,52.444457 87.64452,52.56411 85.087104,51.24162 82.641666,49.977034 80.362254,50.483494 76.718982,53.100926 73.484964,55.424336 72.512364,55.640315 71.387436,54.284863 70.7091,53.467513 70.510422,53.476081 69.52812,54.365051 68.116866,55.64222 68.603676,56.4 70.835412,56.4 71.940708,56.4 72.6,56.711174 72.6,57.232854 72.6,57.785779 70.7346,58.5205 67.05,59.418819 61.398858,60.79659 42.700422,67.006596 41.811171,67.800978 41.542315,68.041152 42.373271,69.070008 43.65774,70.087326 46.973915,72.713784 49.32,76.322388 49.32,78.796662 49.32,79.929114 48.785261,82.064532 48.131692,83.542032 47.154422,85.75131 46.051547,86.816304 41.921692,89.538714 32.755388,95.58117 22.523462,99.299898 13.2,99.977436 9.0053388,100.28227 8.5285758,100.19107 6.1735998,98.633466 Z M 20.1,96.249276 C 21.42,95.791776 23.088364,95.413536 23.807476,95.40873 24.526588,95.40393 29.159358,93.379314 34.10252,90.909582 41.047318,87.439788 43.579883,85.84695 45.245044,83.901582 46.43027,82.516914 47.4,81.01893 47.4,80.572728 47.4,77.789394 43.436365,72.894624 39.256433,70.51608 37.480477,69.505488 37.324635,69.512028 35.006982,70.694406 32.626829,71.908668 32.580562,71.997618 30.681191,79.010898 29.625242,82.909902 28.532278,87.13422 28.252382,88.398258 27.619517,91.256346 26.685849,92.325846 25.691597,91.331598 25.147061,90.787062 25.444571,88.813038 26.977756,82.797756 28.074764,78.493764 28.811426,74.811426 28.614781,74.614782 28.039089,74.039088 18.352057,79.733718 13.947956,83.236836 9.5488428,86.735988 5.416525,91.508124 5.406377,93.100926 5.384653,96.510672 8.2026462,97.969398 13.8,97.445862 15.945,97.245234 18.78,96.70677 20.1,96.249276 Z M 33.007769,57.567614 C 33.852376,54.046897 33.513505,53.352112 31.732861,54.953678 30.050983,56.466412 29.412854,58.253926 30.09201,59.55 31.103599,61.480476 32.257252,60.696126 33.007769,57.567614 Z M 91.2,57.635839 C 91.2,56.55471 93.82107,50.202199 99.343482,37.899041 101.30114,33.537666 104.43674,28.8 105.36564,28.8 106.73423,28.8 106.92597,30.019062 105.81806,31.676386 103.92262,34.511753 102,39.063372 102,40.71525 102,41.66154 101.51146,42.616446 100.8,43.060756 98.843742,44.282459 99.293892,46.133332 101.80217,47.181357 103.84127,48.033347 104.26698,48.011805 107.55111,46.890439 112.20081,45.302801 119.63878,41.05354 122.51285,38.342902 124.42165,36.542641 124.8,35.788799 124.8,33.785894 124.8,31.191206 124.0501,30.228889 120.70856,28.535515 115.47128,25.881448 102.36035,25.035932 92.628594,26.724655 85.38495,27.981623 83.187162,29.166847 82.8,32.025034 82.635,33.243123 82.23,34.239194 81.9,34.238524 80.898804,34.236524 80.875416,31.45033 81.86964,30.625175 82.38135,30.200516 82.8,29.531902 82.8,29.139368 82.8,27.892631 86.12844,25.906057 90.078384,24.795273 93.11838,23.94038 96.170232,23.719108 105,23.713389 117.32996,23.705389 120.0938,24.259821 124.83101,27.691438 127.34716,29.514127 127.35001,29.514607 129.60835,28.496234 132.24612,27.306766 134.0341,27.68378 135.36127,29.709299 135.90539,30.539743 136.65068,30.989395 137.15942,30.794174 138.35155,30.336713 141.54511,25.38775 144.91639,18.77344 146.46566,15.733832 148.64827,12.304714 149.76662,11.153179 150.88498,10.001644 151.8,8.7760962 151.8,8.4297396 151.8,8.083383 152.34,7.8 153,7.8 154.34527,7.8 154.59229,8.689401 153.45,9.420186 153.0375,9.6840834 151.9067,11.380169 150.9371,13.189264 145.24783,23.804486 144.50588,26.089706 147.77857,22.9177 149.84787,20.91205 152.20874,20.403432 152.7616,21.844171 153.16943,22.906974 150.58212,27.067118 148.76147,28.275987 147.85181,28.879976 147.51989,29.525818 147.77606,30.193376 148.31635,31.60135 149.49223,31.459279 153.77502,29.468576 158.94203,27.066877 163.66236,25.462359 164.14399,25.943993 164.36633,26.166332 164.40584,26.719363 164.23179,27.172949 163.85675,28.150265 150.54359,34.2 148.76791,34.2 148.09285,34.2 146.56082,33.248528 145.36341,32.085617 144.166,30.922706 142.89688,30.062819 142.54315,30.174757 140.54894,30.80582 136.82024,41.857673 136.79081,47.224705 136.77951,49.295924 135.95533,50.690429 135.06708,50.141459 134.19396,49.60184 134.20042,42.123989 135.07708,38.642708 135.44944,37.163937 135.6134,35.813332 135.44143,35.641363 135.26946,35.469395 134.0913,35.884738 132.82329,36.564347 131.55527,37.243956 129.75793,37.8 128.82918,37.8 127.69267,37.8 126.41463,38.515004 124.9203,39.986838 122.18834,42.677671 117.22862,46.644941 112.46287,48.937175 107.85622,51.152887 106.38687,51.301978 99.030636,50.300116 97.730934,50.123107 97.37358,50.550334 95.935848,54 95.041872,56.145 94.00494,58.2375 93.63156,58.65 92.697798,59.681596 91.235652,59.59105 90.807426,58.47511 Z M 68.800002,41.6 C 68.058324,40.858323 68.392734,39.131174 69.349074,38.764193 72.046632,37.729042 74.941824,39.122601 74.185956,41.092359 73.831356,42.016425 69.613932,42.413929 68.800002,41.6 Z M 169.22392,28.528823 C 168.09415,27.167538 168.71017,25.5 170.34283,25.5 172.23547,25.5 173.30761,27.165415 172.24174,28.449706 171.25891,29.633945 170.1649,29.662627 169.22392,28.528826 Z" id="path8816" inkscape:connector-curvature="0" sodipodi:nodetypes="sssssssscsssssssssssssssssssssssssssssssccsccscscsssssssssssssssssssssssssssssssssssssssssssssssssssccsssssssssssscsssssssssscsssssssssssssssssssssssssssssss" />
                        <!-- Layer 3: ORIGINAL: #c7c7c7 -> REVERSED: #808080 -->
                        <path style="fill:#808080" d="M 8.893116,99.637308 C 5.9704387,98.70885 2.9988052,96.000732 3.0131772,94.278786 3.058662,88.829154 10.820286,81.21138 23.947458,73.732506 30.207167,70.16619 30.537421,69.850542 31.001561,66.990378 31.262352,65.383314 31.038671,64.484178 30.072527,63.255924 29.372637,62.36616 28.8,61.265916 28.8,60.810942 28.8,60.355968 28.479166,59.46998 28.087034,58.842078 27.493118,57.891067 27.644818,57.291309 28.995548,55.250219 29.887361,53.902599 30.464787,52.8 30.278717,52.8 29.547475,52.8 26.584298,54.575317 24.367497,56.341565 21.900787,58.306931 20.4,58.714001 20.4,57.4177 20.4,56.120904 23.992888,53.080708 29.602235,49.631038 32.518465,47.837599 35.233382,45.724435 35.635386,44.935119 36.232704,43.762312 36.760806,43.53083 38.524648,43.66867 40.092099,43.791164 43.01544,42.835499 49.202648,40.177943 57.196363,36.744448 59.4,36.235498 59.4,37.822771 59.4,38.351445 46.342015,45 45.303682,45 44.777918,45 38.480716,49.18399 38.114395,49.776709 37.618806,50.578588 35.604327,58.50956 35.109626,61.606434 34.747888,63.870948 34.863217,64.213758 36.304505,65.158128 37.839937,66.164178 38.03854,66.151344 41.599883,64.815966 43.634948,64.052892 48.808851,62.230776 53.097447,60.76683 57.386043,59.302882 61.01133,57.988667 61.153644,57.846353 61.531992,57.468005 59.238086,55.841436 58.294637,55.819082 57.851688,55.808587 56.802776,56.34 55.963723,57 54.136561,58.437245 51,58.626815 51,57.3 51,56.805 51.524567,56.4 52.165704,56.4 54.311828,56.4 57.392935,54.055032 58.514352,51.568173 59.233124,49.97422 59.926936,49.222825 60.552096,49.361302 61.073442,49.476783 61.392198,49.960233 61.260438,50.435634 60.353658,53.70742 60.476208,54.802015 61.86921,55.873136 62.656146,56.478236 63.949344,56.97932 64.742994,56.986658 66.10308,56.999238 66.128934,56.936958 65.192994,55.902755 63.335316,53.850049 64.462224,48.6 66.7605,48.6 67.637448,48.6 67.8207,48.861574 67.496124,49.65 66.616992,51.785458 66.475638,52.8 67.05723,52.8 67.385682,52.8 67.98993,51.99 68.4,51 69.270222,48.899104 70.19031,48.731814 71.7,50.4 73.05444,51.896641 74.424888,51.922087 76.269084,50.48484 80.145552,47.46377 83.35167,46.720849 85.5,48.345852 86.335488,48.977817 87.383466,49.138258 88.95,48.874031 90.651522,48.587037 91.2,48.697521 91.2,49.327264 91.2,51.627596 87.724914,52.315959 84.50859,50.652733 82.337952,49.530253 80.825976,49.994154 76.400796,53.14034 73.630302,55.11009 73.558998,55.125484 71.85858,54.121022 70.171176,53.124248 70.10463,53.135382 68.993952,54.600272 L 67.856856,56.1 69.928428,56.286219 C 73.61655,56.617754 72.184554,57.878063 66.45,59.347605 58.633504,61.350666 42.389847,66.801288 41.211171,67.816584 40.942315,68.048178 41.854397,69.134262 43.238021,70.230114 46.393043,72.72894 49.2,76.55403 49.2,78.354612 49.2,80.665638 48.089218,80.57499 47.089522,78.182376 45.952832,75.461892 44.346812,73.658736 40.991895,71.336262 37.972856,69.2463 36.799171,69.179748 34.180312,70.95 32.137735,72.330708 31.545751,74.004 28.116169,88.090818 27.533513,90.484044 26.248685,91.848684 25.388223,90.988224 25.19021,90.790212 25.738247,88.124352 26.606084,85.0641 27.47392,82.003842 28.365771,78.170106 28.587974,76.544682 L 28.99198,73.589358 24.84599,75.90318 C 17.203382,80.168424 14.126465,82.375866 9.75,86.733366 6.041355,90.42594 5.4,91.367214 5.4,93.117582 5.4,97.001034 6.3309288,97.515228 13.122789,97.383222 17.186648,97.304232 19.715147,96.964422 20.93576,96.333222 21.928316,95.819946 23.398796,95.4 24.203493,95.4 25.00819,95.4 29.700002,93.404136 34.629742,90.964752 41.821717,87.405942 44.026024,86.012808 45.78471,83.914752 47.536278,81.825186 47.978872,81.544338 47.988257,82.516494 48.007087,84.46758 46.413776,86.219178 41.76935,89.353206 31.529122,96.263238 14.77232,101.50498 8.893116,99.637308 Z M 32.97531,58.588184 C 33.377504,57.151685 33.612514,55.329185 33.497552,54.538184 L 33.28853,53.1 31.344265,55.003846 C 29.189867,57.113456 28.850102,59.150277 30.45,60.36477 32.011621,61.550214 32.178953,61.432488 32.97531,58.588184 Z M 47.157905,59.493692 C 45.830981,57.346685 52.670557,47.4 55.473814,47.4 57.471941,47.4 56.394409,50.146513 53.132407,53.367996 51.33523,55.142848 49.547473,57.361125 49.159614,58.2975 48.450884,60.008526 47.739006,60.433932 47.157905,59.493692 Z M 91.518534,56.85 C 91.738206,56.1075 93.927906,50.92061 96.38454,45.323578 101.36147,33.984463 104.72509,28.28509 105.80366,29.363666 106.29615,29.856149 106.27996,30.306127 105.74236,31.066514 104.38729,32.983244 101.37237,39.817434 101.59779,40.46138 101.72075,40.812621 101.18655,41.863216 100.41067,42.796035 98.624836,44.943099 98.641942,45.230364 100.64998,46.814966 101.92073,47.817752 102.86342,48.054121 104.75131,47.843338 108.28022,47.449336 118.27255,42.256594 122.14722,38.803156 125.6291,35.699809 125.67583,35.541245 124.4239,31.078823 123.78647,28.806721 115.95047,26.262419 107.39998,25.551254 101.75867,25.082053 89.175016,26.722678 84.29998,28.562973 83.503792,28.863529 83.719492,28.487783 84.940978,27.446368 87.431578,25.322927 93.46918,23.97686 102.29998,23.576226 113.51153,23.067582 121.02281,24.73383 126.09253,28.85419 127.5881,30.069697 127.76979,30.089189 129.07604,29.17426 131.16981,27.707724 133.51203,27.944651 134.94633,29.768071 135.65856,30.673521 136.54499,31.195994 137.04405,31.004488 138.40706,30.481453 142.27432,24.776365 145.08402,19.143731 147.8615,13.575664 150.79082,9.6130428 151.56629,10.374839 151.83215,10.636001 151.20708,12.391001 150.17726,14.274839 145.91584,22.070211 145.18172,23.686978 145.51231,24.548493 145.77836,25.241807 146.33551,24.933205 147.89909,23.226466 149.02095,22.00191 150.36606,21 150.88824,21 153.34144,21 152.1864,24.796261 148.82296,27.787917 147.77923,28.716272 147.03041,29.796272 147.15891,30.187917 147.56701,31.431749 150.42004,31.316201 153.10358,29.947157 156.562,28.182802 163.36156,25.829026 163.94978,26.192569 164.82787,26.73526 163.71823,27.626094 159.54857,29.725898 152.35203,33.350021 149.17049,34.343081 147.37587,33.525396 146.5184,33.134705 145.40182,32.181663 144.89458,31.407524 143.55092,29.356847 142.01289,29.658519 140.55108,32.259466 138.63186,35.67425 137.52473,39.398989 136.88368,44.597801 136.26886,49.583809 136.05599,50.152637 135.03992,49.524671 134.1027,48.94544 134.25946,42.79171 135.31462,38.740674 135.81766,36.80938 136.10186,35.101855 135.94618,34.946174 135.79049,34.790494 134.73955,35.233917 133.61074,35.931559 132.48193,36.629202 130.63069,37.2 129.49688,37.2 127.91815,37.2 126.9512,37.702373 125.3677,39.345287 122.69247,42.120899 116.41217,46.295802 111.34514,48.666956 107.86024,50.297735 106.89979,50.496767 103.9212,50.205407 102.03954,50.021346 99.800772,49.696628 98.946156,49.483811 97.488066,49.120715 97.266228,49.377308 95.346156,53.64778 93.886302,56.894675 92.98755,58.198877 92.209566,58.199345 91.36032,58.199855 91.207476,57.901402 91.518534,56.85 Z M 133.2,31.8 C 133.2,31.47 132.64406,31.2 131.96459,31.2 131.28511,31.2 130.89605,31.47 131.1,31.8 131.30395,32.13 131.85989,32.4 132.33541,32.4 132.81094,32.4 133.2,32.13 133.2,31.8 Z M 69.279438,40.766734 C 69.04119,40.38124 69.218352,39.823579 69.673128,39.527488 70.924224,38.71294 73.5,39.165592 73.5,40.2 73.5,41.306368 69.910818,41.78832 69.279438,40.766734 Z M 81.6,33 C 81.6,31.88 81.760002,31.72 82.32,32.28 82.879998,32.84 82.879998,33.16 82.32,33.72 81.760002,34.28 81.6,34.12 81.6,33 Z M 169.84244,28.226233 C 168.84896,27.612227 169.42748,25.8 170.61698,25.8 171.08702,25.8 171.61945,26.185259 171.80014,26.656132 172.23555,27.790785 170.88738,28.872038 169.84244,28.226233 Z M 152.4,8.7354102 C 152.4,8.2209348 152.67,7.8 153,7.8 153.33,7.8 153.6,8.0540652 153.6,8.3645898 153.6,8.6751144 153.33,9.0960486 153,9.3 152.67,9.5039514 152.4,9.249888 152.4,8.7354102 Z" id="path8814" inkscape:connector-curvature="0" sodipodi:nodetypes="sssssssssssssssssssssssssssssssssssssssssssssscsssssssssssscssssssssssssscsssssssssssssssssssssssssssssssssssssssssssssssssssssssssssssss" />
                        <!-- Layer 4: ORIGINAL: #808080 -> REVERSED: #c7c7c7 -->
                        <path style="fill:#c7c7c7" d="M 5.85,97.479294 C 4.2825,96.329268 3,94.969242 3,94.457016 3,92.215014 6.2405268,86.88093 9.1867836,84.273228 12.681654,81.179952 21.996511,74.862 27,72.191118 29.784785,70.704594 30.425217,70.039398 31.102026,67.93047 31.838691,65.635032 31.802018,65.288082 30.652026,63.673062 28.986413,61.333926 29.073588,60.65133 31.020604,60.787044 32.516545,60.891312 32.700152,60.646152 33.407468,57.6 34.340252,53.582839 34.093098,52.493882 32.448347,53.374126 30.428362,54.455189 30.314787,54.063361 32.106154,52.193576 L 33.836818,50.387153 30.268409,52.300881 C 28.305784,53.353431 25.592192,55.111322 24.238205,56.207305 21.604953,58.338785 20.4,58.704513 20.4,57.372277 20.4,56.258978 24.524095,52.94878 30.217738,49.492086 32.849278,47.89444 35.188,46.004896 35.569071,45.168537 36.137385,43.921223 36.552506,43.732648 38.156857,43.992999 39.608697,44.2286 42.048434,43.449917 48.312841,40.751546 56.519549,37.216537 59.112311,36.515043 58.667528,37.95 58.43023,38.715568 56.753996,39.613844 45.492531,45.010347 41.968423,46.699103 38.70568,48.670129 38.241991,49.390406 37.37833,50.731985 35.834101,56.473281 35.095846,61.087482 34.770692,63.119736 34.907612,63.92442 35.733921,64.837482 37.142554,66.394002 38.063155,66.316716 43.909069,64.151172 49.349341,62.135886 62.289372,57.902604 64.984128,57.256544 L 66.66825,56.85278 65.434128,55.703017 C 64.755354,55.070647 64.2,54.010364 64.2,53.346831 64.2,51.823044 65.840034,48.6 66.615408,48.6 67.411296,48.6 67.349952,49.576171 66.465024,50.993165 65.903148,51.892873 65.89566,52.335658 66.433224,52.873222 66.970788,53.410786 67.440462,53.061038 68.427462,51.388198 69.13755,50.184689 69.89436,49.204664 70.109268,49.210366 70.32417,49.216066 71.135838,49.891067 71.912976,50.710366 72.690114,51.529664 73.527102,52.2 73.772952,52.2 74.018802,52.2 75.287622,51.426584 76.592556,50.481298 77.897484,49.536011 79.909158,48.421238 81.06294,48.004025 82.863444,47.352956 83.443104,47.391475 85.153254,48.275827 86.502408,48.973502 87.800316,49.183409 89.172888,48.925913 91.426986,48.503041 91.760784,49.106511 90.102756,50.607007 88.709352,51.868022 86.744196,51.871165 84.61899,50.615807 82.517796,49.3746 80.847426,49.776315 76.808772,52.494128 73.257318,54.88408 72.810846,54.976829 71.326038,53.633098 70.333146,52.73454 70.152582,52.787576 68.772654,54.383098 L 67.28772,56.1 69.06747,56.4 C 72.199218,56.927896 71.23404,57.824333 66,59.249015 54.743824,62.312892 40.785919,67.289394 40.814183,68.228676 40.821983,68.487906 41.900255,69.492996 43.210342,70.462206 46.948926,73.228044 50.499607,79.2 48.405478,79.2 47.924014,79.2 47.367968,78.554058 47.16982,77.764572 46.786646,76.237884 41.458953,71.052606 38.859504,69.676404 37.46424,68.93772 37.038739,68.99958 34.732477,70.276404 32.179323,71.689914 32.149346,71.745702 30.501499,78.150306 29.588716,81.697974 28.562467,85.122726 28.220947,85.760862 27.879426,86.398998 27.6,87.5808 27.6,88.387086 27.6,89.193378 27.195,90.189186 26.7,90.6 25.234037,91.816644 25.232827,91.827468 27.65452,82.059714 29.657798,73.97961 29.678144,73.8 28.590157,73.8 27.40063,73.8 17.163989,80.093706 12.888308,83.453838 8.7244104,86.726118 4.8,91.424784 4.8,93.13791 4.8,94.464912 5.8870019,96.704598 6.8398224,97.340814 7.7706888,97.962366 16.081671,97.88028 18.6,97.224654 19.755,96.923964 22.185,96.301212 24,95.84076 29.198248,94.52202 43.170354,87.25719 45.441074,84.69243 46.839839,83.112534 47.384642,82.78917 47.391074,83.535012 47.411174,85.865724 35.823976,93.333156 27.464849,96.376572 23.565642,97.796208 14.558234,99.601836 11.458927,99.585126 9.2671176,99.573306 8.1141618,99.140442 5.85,97.479294 Z M 34.8,67.450002 C 34.8,66.927498 34.479375,66.606876 34.0875,66.737502 32.974966,67.108344 32.790444,68.4 33.85,68.4 34.3725,68.4 34.8,67.9725 34.8,67.450002 Z M 47.4,58.170204 C 47.4,56.746615 48.809912,53.834672 50.281909,52.218091 53.657712,48.510706 54.891256,47.397085 55.425,47.575 56.715992,48.00533 56.399624,49.243702 54.4925,51.225121 51.393733,54.444605 49.707706,56.546101 49.029814,58.033911 48.255515,59.73331 47.4,59.804852 47.4,58.170204 Z M 28.209188,58.08541 C 28.204135,57.527386 28.47,56.903951 28.8,56.7 29.559358,56.230691 29.559358,57.024977 28.8,58.2 28.298761,58.975612 28.217105,58.959775 28.209188,58.08541 Z M 51.6,57.749351 C 51.6,57.501494 52.74489,56.746908 54.1442,56.072492 56.418402,54.976411 57.4511,53.867716 59.77963,50.02235 60.84726,48.259249 61.394706,49.49201 60.605742,51.88261 60.007152,53.696346 60.048174,54.284153 60.85977,55.522811 61.981152,57.234254 61.71552,57.365445 59.744181,56.073775 58.427762,55.211224 58.17597,55.252471 56.081563,56.673775 53.924202,58.137799 51.6,58.695608 51.6,57.749351 Z M 91.80843,57.15 C 91.82073,55.617167 101.18964,34.807418 102.52653,33.343469 103.15108,32.659561 103.84631,31.4925 104.07147,30.75 104.29664,30.0075 104.86767,29.4 105.34043,29.4 106.33353,29.4 106.48832,30.350987 105.58599,30.908657 104.73919,31.432013 101.4,38.909958 101.4,40.282989 101.4,40.897345 100.86,41.94 100.2,42.6 98.476056,44.323945 98.69031,46.009037 100.7702,47.084592 103.85868,48.681706 106.26832,48.217161 113.39121,44.651439 121.60919,40.537508 125.4,37.201618 125.4,34.083766 125.4,29.707283 121.36913,27.275192 111.66134,25.794332 105.70285,24.885402 94.336008,25.330974 89.4279,26.665867 86.032884,27.589234 84.892836,27.523307 86.79861,26.513822 89.377032,25.148038 98.156934,23.922922 106.03398,23.829787 115.75655,23.714831 120.35044,24.763682 124.71445,28.094812 127.39467,30.140671 127.4795,30.161516 129.17196,29.19018 131.76385,27.702642 133.53398,27.941165 134.9807,29.972897 135.74055,31.040011 136.58723,31.613743 137.10752,31.414089 138.34894,30.937712 142.14174,25.503934 144.1672,21.3 146.24053,16.996699 150.11948,10.812601 150.75,10.805248 151.52225,10.796248 151.25455,11.720774 149.60467,14.760637 146.8358,19.862178 145.2,23.366681 145.2,24.197058 145.2,25.973009 146.14878,25.717905 148.30117,23.363231 149.54562,22.001819 150.90945,21.003025 151.3319,21.143688 152.89355,21.663668 152.38112,23.291213 149.72594,26.244413 146.74599,29.558833 146.49707,30.258917 147.99955,31.099751 149.19421,31.768313 150.55998,31.377523 156.9,28.553048 161.76893,26.38394 164.22343,25.829474 161.36992,28.265402 158.98643,29.822956 150.04435,33.6 148.74035,33.6 148.41508,33.6 147.215,32.655 146.06,31.5 144.905,30.345 143.43239,29.4 142.78753,29.4 140.51284,29.4 137.25757,36.186363 136.45576,42.6 135.90957,46.969012 135.04246,48.524827 135.01825,45.179274 135.00245,42.988346 135.54468,40.376935 137.14249,34.95 137.64178,33.254149 137.42326,33.263956 133.8,35.1 132.17194,35.925 129.93888,36.6 128.83765,36.6 127.32224,36.6 126.33265,37.124806 124.7677,38.758395 121.8363,41.818378 116.07986,45.834749 111.56297,47.971576 107.17279,50.048467 103.04293,50.370136 100.12711,48.862304 98.65398,48.100523 98.142396,48.066859 97.40016,48.682859 96.378546,49.530724 93.6,55.010094 93.6,56.176882 93.6,56.590646 93.33,57.096049 93,57.3 92.67,57.503951 92.4,57.418832 92.4,57.110846 Z M 129.81004,33.543367 C 128.74491,32.478244 128.51545,32.433718 128.20886,33.23267 127.72422,34.495625 129.5343,36.305702 130.4081,35.431905 130.86841,34.971587 130.69701,34.430346 129.81004,33.543367 Z M 134.231,32.0182 C 134.52328,31.126735 130.96408,29.849098 130.46009,30.664567 130.25856,30.990661 130.25105,31.667617 130.44339,32.168915 130.84662,33.219721 133.87656,33.099154 134.23097,32.0182 Z M 48.6,55.666459 C 48.6,54.51448 50.170118,53.142634 50.632435,53.890677 50.819032,54.192598 50.438069,54.922555 49.785851,55.512805 48.787411,56.416381 48.6,56.440664 48.6,55.666459 Z M 65.164194,54.850928 C 64.963884,54.328937 64.8,53.51665 64.8,53.045843 64.8,52.352102 65.018244,52.326127 65.95128,52.908817 66.857736,53.474908 67.30431,53.460367 68.05128,52.840437 69.266124,51.832206 69.274338,52.741317 68.06598,54.466498 66.973524,56.026196 65.680902,56.197444 65.164194,54.85093 Z M 58.2,54.03541 C 58.2,53.724886 58.47,53.303951 58.8,53.1 59.13,52.896049 59.4,53.15011 59.4,53.66459 59.4,54.179065 59.13,54.6 58.8,54.6 58.47,54.6 58.2,54.345935 58.2,54.03541 Z M 71.149614,52.749566 C 69.136362,50.490038 69.415428,50.008055 71.912892,51.431266 73.74054,52.472774 73.845786,52.466399 76.044162,51.18106 82.131,47.62222 81.94401,47.672045 85.058844,48.779018 86.64477,49.342636 88.562706,49.624666 89.4,49.417381 L 90.9,49.046032 89.539782,50.466566 88.179564,51.8871 85.532598,50.482888 C 83.18283,49.236337 82.642074,49.159057 80.716392,49.794591 79.523304,50.188345 77.341698,51.430643 75.86838,52.555253 74.395062,53.679864 73.101582,54.6 72.993984,54.6 72.886392,54.6 72.056424,53.767304 71.149614,52.749566 Z M 70.6125,41.0125 C 69.83004,40.230041 70.203606,39.6 71.449998,39.6 72.148248,39.6 72.595164,39.9145 72.462498,40.3125 72.170232,41.189306 71.168382,41.568383 70.6125,41.0125 Z M 170.08138,27.569869 C 169.51125,26.647378 170.29219,26.052188 171.06228,26.822279 171.49319,27.253187 171.50354,27.588795 171.09368,27.842066 170.75773,28.049696 170.30217,27.927206 170.08132,27.569869 Z M 149.5024,23.011378 C 149.61866,22.407699 150.2077,21.81866 150.81138,21.702402 151.60403,21.549752 151.85025,21.795972 151.6976,22.588622 151.58134,23.192301 150.9923,23.78134 150.38862,23.897598 149.59597,24.050248 149.34975,23.804028 149.5024,23.011378 Z M 144.60919,21.78541 C 144.61424,21.518435 144.8801,20.895 145.2,20.4 145.70124,19.624388 145.78289,19.640225 145.79081,20.51459 145.79581,21.072614 145.53,21.696049 145.2,21.9 144.87,22.103951 144.60413,22.052386 144.60919,21.78541 Z M 146.40395,18.464502 C 146.40195,18.224978 146.93899,17.144978 147.59776,16.064502 148.25653,14.984026 148.79474,14.37 148.7938,14.7 148.7928,15.03 148.25565,16.11 147.6,17.1 146.94435,18.09 146.40613,18.704026 146.40395,18.464502 Z" id="path8812" inkscape:connector-curvature="0" sodipodi:nodetypes="sssssssssscsssssssssssssscsssssssssssssssssssssssssscsssscssccsssssssssssssssssssssscssscscsssssssssssssssssssssssssssssssssssss" />
                        <!-- Layer 5: ORIGINAL: #666666 -> REVERSED: #d7d7d7 -->
                        <path style="fill:#d7d7d7" d="M 9,99.042012 C 8.3002986,98.55717 8.567364,98.415168 10.2,98.403972 11.355,98.396072 13.785,98.222112 15.6,98.017446 18.072496,97.738638 18.738877,97.818318 18.257459,98.3352 17.381673,99.275514 10.135405,99.828768 9,99.042012 Z M 21,96.9 C 21.825,96.428388 23.213079,96.032952 24.08462,96.021264 24.956161,96.009564 29.177353,94.245 33.465049,92.1 37.752743,89.955 41.480355,88.2 41.74863,88.2 42.016906,88.2 41.170712,88.97847 39.868202,89.929938 37.82563,91.422006 34.429667,93.063402 25.329644,96.956958 24.245948,97.420632 22.490948,97.79043 21.429644,97.778736 L 19.5,97.757478 Z M 4.31,95.869998 C 3.4844853,95.044488 3.3487557,92.4 4.1319004,92.4 4.5829532,92.4 5.4875855,96.029364 5.1388847,96.439998 5.0734977,96.516998 4.7005,96.260502 4.31,95.869998 Z M 4.8238232,90.136596 C 4.7535672,87.885252 14.662797,79.625316 23.847151,74.279514 26.736218,72.597918 29.567219,70.820034 30.138265,70.328658 31.699937,68.984874 32.126376,65.687478 30.967271,63.918462 29.658232,61.920618 29.751015,61.186584 31.291034,61.357074 32.916629,61.537038 33.632332,59.468539 33.875677,53.887018 L 34.050637,49.874036 30.675319,51.738689 C 28.818893,52.764249 26.17456,54.502591 24.799022,55.601672 22.302068,57.596785 21,58.092069 21,57.046754 21,56.102068 25.886731,52.249873 30.671574,49.422681 33.295031,47.872575 35.532064,46.087402 35.921135,45.233481 36.497606,43.968265 36.891168,43.795798 38.549562,44.081646 40.080038,44.345446 42.114874,43.690906 48,41.041751 55.973554,37.452502 58.8,36.596474 58.8,37.770821 58.8,38.159683 56.4375,39.572285 53.55,40.909939 36.983351,48.584549 37.991185,47.844109 36.549432,53.4 34.878474,59.839148 34.346879,63.329736 34.882894,64.342914 35.728432,65.941164 38.247814,66.285402 41.336689,65.224722 58.811051,59.224261 64.41825,57.496077 67.436238,57.180635 71.854224,56.718864 71.614452,57.745241 67.051848,58.826042 62.307312,59.949942 55.681814,62.010408 48.020179,64.74471 44.236276,66.095118 41.063776,67.2 40.970179,67.2 40.876579,67.2 40.800133,67.5375 40.800295,67.95 40.800457,68.3625 42.151922,69.863742 43.803551,71.286096 46.854787,73.91376 48.864295,76.907118 48.437208,78.188376 48.307586,78.577242 47.506281,77.79405 46.65653,76.447956 44.914297,73.688082 42.654977,71.639694 39.489182,69.949746 37.453536,68.863092 37.219145,68.854188 35.249855,69.788676 32.257429,71.208672 31.881658,71.857284 30.101836,78.674544 29.220826,82.049076 28.195254,84.909378 27.822787,85.03077 27.350848,85.184574 27.407463,84.197922 28.009564,81.77574 28.484759,79.86408 29.027905,77.145534 29.216554,75.73452 L 29.559553,73.16904 27.941289,73.784304 C 25.362548,74.76474 16.177889,80.44257 12.9,83.082624 11.25,84.411552 8.7632202,86.714118 7.373823,88.19943 5.984426,89.684742 4.836926,90.55647 4.8238232,90.136596 Z M 34.981693,67.50822 C 35.046762,67.182738 34.6275,66.825438 34.05,66.714222 33.393238,66.587742 33,66.882024 33,67.5 33,68.543874 34.773178,68.551224 34.981693,67.5082 Z M 25.809188,89.85 C 25.822678,88.748928 26.872483,87.272484 27.32216,87.72216 27.846769,88.24677 27.05965,90.6 26.359567,90.6 26.051806,90.6 25.804135,90.2625 25.809188,89.85 Z M 48.255473,56.796462 C 48.569797,54.268844 49.495251,52.8 50.773467,52.8 52.006971,52.8 51.771773,54.25952 50.329182,55.557007 49.630232,56.185654 48.813261,57.24 48.51369,57.9 48.113152,58.782445 48.044821,58.490416 48.255473,56.796462 Z M 53.618584,56.696303 C 55.81296,55.551857 57.058954,55.566665 55.535322,56.719083 54.894749,57.203589 53.814749,57.598338 53.135322,57.596305 52.102023,57.593205 52.181055,57.446028 53.618584,56.696305 Z M 91.80843,57.15 C 91.82073,55.617167 101.18964,34.807418 102.52653,33.343469 103.15108,32.659561 103.84631,31.4925 104.07147,30.75 104.29664,30.0075 104.86767,29.4 105.34043,29.4 106.33353,29.4 106.48832,30.350987 105.58599,30.908657 104.73919,31.432013 101.4,38.909958 101.4,40.282989 101.4,40.897345 100.86,41.94 100.2,42.6 98.476056,44.323945 98.69031,46.009037 100.7702,47.084592 103.85868,48.681706 106.26832,48.217161 113.39121,44.651439 121.60919,40.537508 125.4,37.201618 125.4,34.083766 125.4,29.707283 121.36913,27.275192 111.66134,25.794332 105.70285,24.885402 94.336008,25.330974 89.4279,26.665867 86.032884,27.589234 84.892836,27.523307 86.79861,26.513822 89.377032,25.148038 98.156934,23.922922 106.03398,23.829787 115.75655,23.714831 120.35044,24.763682 124.71445,28.094812 127.39467,30.140671 127.4795,30.161516 129.17196,29.19018 131.76385,27.702642 133.53398,27.941165 134.9807,29.972897 135.74055,31.040011 136.58723,31.613743 137.10752,31.414089 138.34894,30.937712 142.14174,25.503934 144.1672,21.3 146.24053,16.996699 150.11948,10.812601 150.75,10.805248 151.52225,10.796248 151.25455,11.720774 149.60467,14.760637 146.8358,19.862178 145.2,23.366681 145.2,24.197058 145.2,25.973009 146.14878,25.717905 148.30117,23.363231 149.54562,22.001819 150.90945,21.003025 151.3319,21.143688 152.89355,21.663668 152.38112,23.291213 149.72594,26.244413 146.74599,29.558833 146.49707,30.258917 147.99955,31.099751 149.19421,31.768313 150.55998,31.377523 156.9,28.553048 161.76893,26.38394 164.22343,25.829474 161.36992,28.265402 158.98643,29.822956 150.04435,33.6 148.74035,33.6 148.41508,33.6 147.215,32.655 146.06,31.5 144.905,30.345 143.43239,29.4 142.78753,29.4 140.51284,29.4 137.25757,36.186363 136.45576,42.6 135.90957,46.969012 135.04246,48.524827 135.01825,45.179274 135.00245,42.988346 135.54468,40.376935 137.14249,34.95 137.64178,33.254149 137.42326,33.263956 133.8,35.1 132.17194,35.925 129.93888,36.6 128.83765,36.6 127.32224,36.6 126.33265,37.124806 124.7677,38.758395 121.8363,41.818378 116.07986,45.834749 111.56297,47.971576 107.17279,50.048467 103.04293,50.370136 100.12711,48.862304 98.65398,48.100523 98.142396,48.066859 97.40016,48.682859 96.378546,49.530724 93.6,55.010094 93.6,56.176882 93.6,56.590646 93.33,57.096049 93,57.3 92.67,57.503951 92.4,57.418832 92.4,57.110846 Z M 129.81004,33.543367 C 128.74491,32.478244 128.51545,32.433718 128.20886,33.23267 127.72422,34.495625 129.5343,36.305702 130.4081,35.431905 130.86841,34.971587 130.69701,34.430346 129.81004,33.543367 Z M 134.231,32.0182 C 134.52328,31.126735 130.96408,29.849098 130.46009,30.664567 130.25856,30.990661 130.25105,31.667617 130.44339,32.168915 130.84662,33.219721 133.87656,33.099154 134.23097,32.0182 Z M 48.6,55.666459 C 48.6,54.51448 50.170118,53.142634 50.632435,53.890677 50.819032,54.192598 50.438069,54.922555 49.785851,55.512805 48.787411,56.416381 48.6,56.440664 48.6,55.666459 Z M 65.164194,54.850928 C 64.963884,54.328937 64.8,53.51665 64.8,53.045843 64.8,52.352102 65.018244,52.326127 65.95128,52.908817 66.857736,53.474908 67.30431,53.460367 68.05128,52.840437 69.266124,51.832206 69.274338,52.741317 68.06598,54.466498 66.973524,56.026196 65.680902,56.197444 65.164194,54.85093 Z M 58.2,54.03541 C 58.2,53.724886 58.47,53.303951 58.8,53.1 59.13,52.896049 59.4,53.15011 59.4,53.66459 59.4,54.179065 59.13,54.6 58.8,54.6 58.47,54.6 58.2,54.345935 58.2,54.03541 Z M 71.149614,52.749566 C 69.136362,50.490038 69.415428,50.008055 71.912892,51.431266 73.74054,52.472774 73.845786,52.466399 76.044162,51.18106 82.131,47.62222 81.94401,47.672045 85.058844,48.779018 86.64477,49.342636 88.562706,49.624666 89.4,49.417381 L 90.9,49.046032 89.539782,50.466566 88.179564,51.8871 85.532598,50.482888 C 83.18283,49.236337 82.642074,49.159057 80.716392,49.794591 79.523304,50.188345 77.341698,51.430643 75.86838,52.555253 74.395062,53.679864 73.101582,54.6 72.993984,54.6 72.886392,54.6 72.056424,53.767304 71.149614,52.749566 Z M 70.6125,41.0125 C 69.83004,40.230041 70.203606,39.6 71.449998,39.6 72.148248,39.6 72.595164,39.9145 72.462498,40.3125 72.170232,41.189306 71.168382,41.568383 70.6125,41.0125 Z M 170.08138,27.569869 C 169.51125,26.647378 170.29219,26.052188 171.06228,26.822279 171.49319,27.253187 171.50354,27.588795 171.09368,27.842066 170.75773,28.049696 170.30217,27.927206 170.08132,27.569869 Z M 149.5024,23.011378 C 149.61866,22.407699 150.2077,21.81866 150.81138,21.702402 151.60403,21.549752 151.85025,21.795972 151.6976,22.588622 151.58134,23.192301 150.9923,23.78134 150.38862,23.897598 149.59597,24.050248 149.34975,23.804028 149.5024,23.011378 Z M 144.60919,21.78541 C 144.61424,21.518435 144.8801,20.895 145.2,20.4 145.70124,19.624388 145.78289,19.640225 145.79081,20.51459 145.79581,21.072614 145.53,21.696049 145.2,21.9 144.87,22.103951 144.60413,22.052386 144.60919,21.78541 Z M 146.40395,18.464502 C 146.40195,18.224978 146.93899,17.144978 147.59776,16.064502 148.25653,14.984026 148.79474,14.37 148.7938,14.7 148.7928,15.03 148.25565,16.11 147.6,17.1 146.94435,18.09 146.40613,18.704026 146.40395,18.464502 Z" id="path8810" inkscape:connector-curvature="0" sodipodi:nodetypes="ssssssssssssssssssssssssssssssssssssssssssssscssssssssssssssssssssssssssssssssssscsssscssccsssssssssssssssssssssscssscscsssssssssssssssssssssssssssssssssssss" />
                        <!-- Layer 6: Innermost/Line-work. ORIGINAL: #333333 (Darkest) -> REVERSED: #e8e8e8 (Lightest) -->
                        <path style="fill:#e8e8e8" d="m 30.019082,72.15 c 0.03481,-0.820764 1.601897,-2.55 2.310896,-2.55 0.454207,0 0.354695,0.52347 -0.285152,1.5 -0.93528,1.427418 -2.066614,2.013822 -2.025744,1.05 z M 37.65,68.510148 C 35.142826,68.221662 35.524864,66.6 38.1,66.6 c 1.155,0 2.095865,0.2025 2.090812,0.45 -0.02185,1.070442 -1.00707,1.636626 -2.540812,1.460148 z M 31.944328,64.208142 C 30.991451,62.682342 31.007951,62.4 32.05,62.4 c 0.4675,0 1.113934,-0.7425 1.43652,-1.65 0.512656,-1.442209 0.581625,-1.253307 0.547653,1.5 -0.0409,3.314328 -0.799179,4.024824 -2.089845,1.958142 z M 49.2,63.364194 c 0,-0.129696 0.419023,-0.3966 0.931163,-0.59313 0.533955,-0.204894 0.774793,-0.10431 0.56459,0.235806 C 50.343398,63.576996 49.2,63.85014 49.2,63.364194 Z M 62.7,58.8 c 0.66,-0.283612 1.605,-0.515657 2.1,-0.515657 0.567288,0 0.456384,0.190628 -0.3,0.515657 -0.66,0.283612 -1.605,0.515657 -2.1,0.515657 -0.567288,0 -0.456384,-0.190628 0.3,-0.515657 z M 34.8,52.6 c 0,-1.910832 -0.268016,-3.4 -0.611923,-3.4 -0.336558,0 -1.712067,0.69449 -3.056688,1.543312 -1.344621,0.848822 -2.558751,1.429326 -2.698068,1.290009 -0.139318,-0.139317 1.473764,-1.370223 3.584625,-2.735345 2.136031,-1.3814 3.986555,-3.050385 4.173092,-3.763705 0.289836,-1.108332 0.621877,-1.227877 2.455195,-0.883944 1.792801,0.336331 3.337497,-0.165737 10.0076,-3.252737 4.338162,-2.007751 8.193252,-3.534554 8.566867,-3.392895 C 57.865309,38.249102 46.711835,43.8 45.576136,43.8 45.117541,43.8 42.87401,44.805225 39,46.74647 c -0.495,0.248041 -1.504609,2.293667 -2.243576,4.545833 -0.738967,2.252167 -1.481467,4.23274 -1.65,4.401273 C 34.937891,55.862109 34.8,54.47 34.8,52.6 Z m 30.6,1.756172 c 0,-0.548431 0.420084,-0.733975 1.2,-0.530021 0.66,0.172593 1.2,0.552316 1.2,0.843828 C 67.8,54.96149 67.26,55.2 66.6,55.2 c -0.66,0 -1.2,-0.379723 -1.2,-0.843828 z m 6.523464,-1.368511 c -0.724884,-0.89115 -0.691896,-0.962977 0.27561,-0.6 0.604488,0.226787 1.346988,0.412339 1.65,0.412339 0.303006,0 0.550926,0.27 0.550926,0.6 0,0.956917 -1.576212,0.69448 -2.476536,-0.412339 z m 13.541214,-2.936642 c -1.065768,-0.868388 -1.071336,-0.919343 -0.0656,-0.6 0.604484,0.191939 1.76792,0.348981 2.585402,0.348981 0.83811,0 1.324614,0.261676 1.11552,0.6 -0.553014,0.894791 -2.316636,0.725488 -3.635322,-0.348981 z m 15.020462,-1.475068 c -0.25297,-0.409314 0.19938,-0.4835 1.31459,-0.215594 2.29884,0.55225 2.51643,0.839643 0.63568,0.839643 -0.86052,0 -1.73815,-0.280822 -1.95027,-0.624049 z m 5.76486,0.410786 c 0.82526,-0.703993 11.91996,-5.623551 11.63216,-5.157875 -0.66654,1.078481 -8.98551,5.355292 -10.43216,5.363206 -0.7975,0.0044 -1.3375,-0.08804 -1.2,-0.205331 z M 96.6,47.43541 c 0,-1.119528 1.3356,-1.356956 2.28615,-0.406404 C 99.78081,47.923665 99.729114,48 98.228574,48 97.332858,48 96.6,47.745935 96.6,47.43541 Z M 71.106048,40.190213 C 71.313324,39.85483 71.73426,39.735764 72.04146,39.925623 72.873684,40.439967 72.718506,40.8 71.664588,40.8 c -0.514476,0 -0.765816,-0.274404 -0.55854,-0.609787 z M 126,33.3 c 0,-1.485 0.27847,-2.7 0.61883,-2.7 0.68405,0 0.91587,0.565516 1.41425,3.45 C 128.31911,35.705501 128.19103,36 127.185,36 126.18056,36 126,35.588608 126,33.3 Z m 4.94922,0.915979 c -0.68386,-1.095032 -0.60998,-1.158132 0.98291,-0.839553 0.97773,0.195546 1.8988,0.05894 2.13051,-0.31598 0.4656,-0.753347 2.13736,-0.90181 2.13736,-0.189811 0,0.517816 -3.17972,2.529365 -3.99825,2.529365 -0.2822,0 -0.84584,-0.53281 -1.25253,-1.184021 z m 6.20005,-1.136262 c -0.19839,-0.320995 0.25861,-1.077747 1.01554,-1.681672 0.75693,-0.603925 2.177,-2.292375 3.15572,-3.752111 2.25893,-3.369179 3.5727,-3.94688 2.99509,-1.31703 -0.31948,1.454569 -0.20788,1.871096 0.5013,1.871096 0.50174,0 1.07913,-0.27 1.28308,-0.6 0.20395,-0.33 0.62717,-0.6 0.94049,-0.6 0.46743,0 0.12252,0.932557 -1.0914,2.950904 -0.083,0.137997 -0.84307,-0.119535 -1.68906,-0.572292 -1.83744,-0.983371 -3.06387,-0.397638 -4.46658,2.133211 -1.03141,1.860913 -2.07913,2.482169 -2.64418,1.567894 z m 10.2043,-0.593043 c -0.17449,-0.282329 0.34958,-0.385853 1.16459,-0.230054 0.81501,0.1558 1.48184,0.386797 1.48184,0.513326 0,0.46425 -2.33918,0.213866 -2.64643,-0.283272 z m 7.71111,-2.153574 c 0.64057,-0.513205 1.42807,-0.9331 1.75,-0.9331 0.76232,0 0.42194,0.27714 -1.41468,1.151827 -1.41436,0.673587 -1.43351,0.661099 -0.33532,-0.218727 z m -23.0473,-0.309664 c -0.48545,-0.307004 -0.69959,-0.741224 -0.47588,-0.964936 0.54906,-0.549055 2.2585,0.149307 2.2585,0.922669 0,0.762063 -0.62117,0.776792 -1.78262,0.04226 z M 150,22.8 c 0,-0.33 0.42094,-0.6 0.93541,-0.6 0.51448,0 0.76854,0.27 0.56459,0.6 -0.20395,0.33 -0.62489,0.6 -0.93541,0.6 C 150.25406,23.4 150,23.13 150,22.8 Z" id="path8806" inkscape:connector-curvature="0" />
                    </g>
                </svg>